<mxfile host="app.diagrams.net" agent="Mozilla/5.0 (Windows NT 10.0; Win64; x64) AppleWebKit/537.36 (KHTML, like Gecko) Chrome/135.0.0.0 Safari/537.36" version="26.2.15">
  <diagram name="Page-1" id="wLu04cu3Txk2mYk08uzK">
    <mxGraphModel dx="1103" dy="1228" grid="0" gridSize="10" guides="1" tooltips="1" connect="1" arrows="1" fold="1" page="0" pageScale="1" pageWidth="850" pageHeight="1100" math="0" shadow="0">
      <root>
        <mxCell id="0" />
        <mxCell id="1" parent="0" />
        <mxCell id="Fq0kVU8FACI2_Pxk67dG-29" style="edgeStyle=none;curved=1;rounded=0;orthogonalLoop=1;jettySize=auto;html=1;entryX=0.5;entryY=1;entryDx=0;entryDy=0;fontSize=12;startSize=8;endSize=8;endArrow=block;endFill=1;" parent="1" source="Fq0kVU8FACI2_Pxk67dG-19" target="Fq0kVU8FACI2_Pxk67dG-15" edge="1">
          <mxGeometry relative="1" as="geometry" />
        </mxCell>
        <mxCell id="Fq0kVU8FACI2_Pxk67dG-12" value="" style="rounded=0;whiteSpace=wrap;html=1;fillColor=#e1d5e7;strokeColor=#795D86;" parent="1" vertex="1">
          <mxGeometry x="501" y="-163" width="170" height="158" as="geometry" />
        </mxCell>
        <mxCell id="Fq0kVU8FACI2_Pxk67dG-10" value="" style="rounded=0;whiteSpace=wrap;html=1;fillColor=#e1d5e7;strokeColor=#795D86;" parent="1" vertex="1">
          <mxGeometry x="63" y="-163" width="211" height="158" as="geometry" />
        </mxCell>
        <mxCell id="Fq0kVU8FACI2_Pxk67dG-1" value="User&#39;s view" style="text;html=1;align=center;verticalAlign=middle;whiteSpace=wrap;rounded=0;" parent="1" vertex="1">
          <mxGeometry x="-106" y="-97" width="111" height="30" as="geometry" />
        </mxCell>
        <mxCell id="Fq0kVU8FACI2_Pxk67dG-2" value="W1" style="rounded=0;whiteSpace=wrap;html=1;" parent="1" vertex="1">
          <mxGeometry x="77" y="-123" width="72" height="60" as="geometry" />
        </mxCell>
        <mxCell id="Fq0kVU8FACI2_Pxk67dG-3" value="W3" style="rounded=0;whiteSpace=wrap;html=1;" parent="1" vertex="1">
          <mxGeometry x="169" y="-139" width="52" height="108" as="geometry" />
        </mxCell>
        <mxCell id="Fq0kVU8FACI2_Pxk67dG-6" value="" style="group" parent="1" vertex="1" connectable="0">
          <mxGeometry x="324" y="-148" width="162" height="141" as="geometry" />
        </mxCell>
        <mxCell id="Fq0kVU8FACI2_Pxk67dG-11" value="" style="rounded=0;whiteSpace=wrap;html=1;fillColor=#e1d5e7;strokeColor=#795D86;" parent="Fq0kVU8FACI2_Pxk67dG-6" vertex="1">
          <mxGeometry x="-28" y="-15" width="190" height="156" as="geometry" />
        </mxCell>
        <mxCell id="Fq0kVU8FACI2_Pxk67dG-4" value="W1" style="rounded=0;whiteSpace=wrap;html=1;" parent="Fq0kVU8FACI2_Pxk67dG-6" vertex="1">
          <mxGeometry width="72" height="60" as="geometry" />
        </mxCell>
        <mxCell id="Fq0kVU8FACI2_Pxk67dG-5" value="W2" style="rounded=0;whiteSpace=wrap;html=1;" parent="Fq0kVU8FACI2_Pxk67dG-6" vertex="1">
          <mxGeometry y="60" width="72" height="60" as="geometry" />
        </mxCell>
        <mxCell id="Fq0kVU8FACI2_Pxk67dG-7" value="W3" style="rounded=0;whiteSpace=wrap;html=1;" parent="1" vertex="1">
          <mxGeometry x="415" y="-142" width="52" height="108" as="geometry" />
        </mxCell>
        <mxCell id="Fq0kVU8FACI2_Pxk67dG-8" value="W1" style="rounded=0;whiteSpace=wrap;html=1;" parent="1" vertex="1">
          <mxGeometry x="512" y="-142" width="63" height="60" as="geometry" />
        </mxCell>
        <mxCell id="Fq0kVU8FACI2_Pxk67dG-9" value="W2" style="rounded=0;whiteSpace=wrap;html=1;" parent="1" vertex="1">
          <mxGeometry x="591" y="-88" width="63" height="60" as="geometry" />
        </mxCell>
        <mxCell id="Fq0kVU8FACI2_Pxk67dG-13" value="Distrubuted view" style="text;html=1;align=center;verticalAlign=middle;whiteSpace=wrap;rounded=0;" parent="1" vertex="1">
          <mxGeometry x="-106" y="135.5" width="111" height="30" as="geometry" />
        </mxCell>
        <mxCell id="Fq0kVU8FACI2_Pxk67dG-14" value="Communication network" style="ellipse;whiteSpace=wrap;html=1;" parent="1" vertex="1">
          <mxGeometry x="116" y="123" width="396" height="55" as="geometry" />
        </mxCell>
        <mxCell id="Fq0kVU8FACI2_Pxk67dG-15" value="Query 1" style="ellipse;whiteSpace=wrap;html=1;" parent="1" vertex="1">
          <mxGeometry x="121" y="23" width="74" height="47" as="geometry" />
        </mxCell>
        <mxCell id="Fq0kVU8FACI2_Pxk67dG-16" value="Query 2" style="ellipse;whiteSpace=wrap;html=1;" parent="1" vertex="1">
          <mxGeometry x="304" y="23" width="74" height="47" as="geometry" />
        </mxCell>
        <mxCell id="Fq0kVU8FACI2_Pxk67dG-17" value="Query 3" style="ellipse;whiteSpace=wrap;html=1;" parent="1" vertex="1">
          <mxGeometry x="473" y="23" width="74" height="47" as="geometry" />
        </mxCell>
        <mxCell id="Fq0kVU8FACI2_Pxk67dG-18" value="Conceptual data view" style="text;html=1;align=center;verticalAlign=middle;whiteSpace=wrap;rounded=0;" parent="1" vertex="1">
          <mxGeometry x="-80.5" y="235" width="60" height="30" as="geometry" />
        </mxCell>
        <mxCell id="Fq0kVU8FACI2_Pxk67dG-25" style="edgeStyle=none;curved=1;rounded=0;orthogonalLoop=1;jettySize=auto;html=1;fontSize=12;startSize=8;endSize=8;startArrow=block;startFill=1;endArrow=block;endFill=1;" parent="1" source="Fq0kVU8FACI2_Pxk67dG-19" target="Fq0kVU8FACI2_Pxk67dG-20" edge="1">
          <mxGeometry relative="1" as="geometry" />
        </mxCell>
        <mxCell id="Fq0kVU8FACI2_Pxk67dG-19" value="Data models" style="rounded=0;whiteSpace=wrap;html=1;" parent="1" vertex="1">
          <mxGeometry x="103" y="231" width="101" height="50" as="geometry" />
        </mxCell>
        <mxCell id="Fq0kVU8FACI2_Pxk67dG-26" style="edgeStyle=none;curved=1;rounded=0;orthogonalLoop=1;jettySize=auto;html=1;fontSize=12;startSize=8;endSize=8;endArrow=block;endFill=1;startArrow=block;startFill=1;" parent="1" source="Fq0kVU8FACI2_Pxk67dG-20" target="Fq0kVU8FACI2_Pxk67dG-21" edge="1">
          <mxGeometry relative="1" as="geometry" />
        </mxCell>
        <mxCell id="Fq0kVU8FACI2_Pxk67dG-20" value="Data access" style="rounded=0;whiteSpace=wrap;html=1;" parent="1" vertex="1">
          <mxGeometry x="260" y="231" width="101" height="50" as="geometry" />
        </mxCell>
        <mxCell id="Fq0kVU8FACI2_Pxk67dG-28" style="edgeStyle=none;curved=1;rounded=0;orthogonalLoop=1;jettySize=auto;html=1;fontSize=12;startSize=8;endSize=8;endArrow=block;endFill=1;" parent="1" source="Fq0kVU8FACI2_Pxk67dG-21" target="Fq0kVU8FACI2_Pxk67dG-16" edge="1">
          <mxGeometry relative="1" as="geometry" />
        </mxCell>
        <mxCell id="Fq0kVU8FACI2_Pxk67dG-21" value="Temporal models" style="rounded=0;whiteSpace=wrap;html=1;" parent="1" vertex="1">
          <mxGeometry x="419" y="231" width="101" height="50" as="geometry" />
        </mxCell>
        <mxCell id="Fq0kVU8FACI2_Pxk67dG-27" style="edgeStyle=none;curved=1;rounded=0;orthogonalLoop=1;jettySize=auto;html=1;fontSize=12;startSize=8;endSize=8;endArrow=block;endFill=1;exitX=0;exitY=0;exitDx=83.5;exitDy=10;exitPerimeter=0;" parent="1" source="Fq0kVU8FACI2_Pxk67dG-22" target="Fq0kVU8FACI2_Pxk67dG-21" edge="1">
          <mxGeometry relative="1" as="geometry" />
        </mxCell>
        <mxCell id="Fq0kVU8FACI2_Pxk67dG-22" value="Video" style="shape=cube;whiteSpace=wrap;html=1;boundedLbl=1;backgroundOutline=1;darkOpacity=0.05;darkOpacity2=0.1;size=20;rotation=0;" parent="1" vertex="1">
          <mxGeometry x="274" y="359" width="93.5" height="59.5" as="geometry" />
        </mxCell>
        <mxCell id="Fq0kVU8FACI2_Pxk67dG-23" value="Physical storage view" style="text;html=1;align=center;verticalAlign=middle;whiteSpace=wrap;rounded=0;" parent="1" vertex="1">
          <mxGeometry x="-97.75" y="365" width="94.5" height="30" as="geometry" />
        </mxCell>
        <mxCell id="eg72zXq6_qFi0K-9-eK--6" style="edgeStyle=none;curved=1;rounded=0;orthogonalLoop=1;jettySize=auto;html=1;fontSize=12;startSize=8;endSize=8;" edge="1" parent="1" source="eg72zXq6_qFi0K-9-eK--1" target="eg72zXq6_qFi0K-9-eK--2">
          <mxGeometry relative="1" as="geometry" />
        </mxCell>
        <mxCell id="eg72zXq6_qFi0K-9-eK--1" value="Ảnh dầu vào" style="rounded=0;whiteSpace=wrap;html=1;" vertex="1" parent="1">
          <mxGeometry x="811" y="-31" width="120" height="60" as="geometry" />
        </mxCell>
        <mxCell id="eg72zXq6_qFi0K-9-eK--7" style="edgeStyle=none;curved=1;rounded=0;orthogonalLoop=1;jettySize=auto;html=1;fontSize=12;startSize=8;endSize=8;" edge="1" parent="1" source="eg72zXq6_qFi0K-9-eK--2" target="eg72zXq6_qFi0K-9-eK--3">
          <mxGeometry relative="1" as="geometry" />
        </mxCell>
        <mxCell id="eg72zXq6_qFi0K-9-eK--2" value="Trích xuất đặc trưng ảnh" style="rounded=0;whiteSpace=wrap;html=1;" vertex="1" parent="1">
          <mxGeometry x="811" y="75.5" width="120" height="60" as="geometry" />
        </mxCell>
        <mxCell id="eg72zXq6_qFi0K-9-eK--8" style="edgeStyle=none;curved=1;rounded=0;orthogonalLoop=1;jettySize=auto;html=1;fontSize=12;startSize=8;endSize=8;" edge="1" parent="1" source="eg72zXq6_qFi0K-9-eK--3" target="eg72zXq6_qFi0K-9-eK--4">
          <mxGeometry relative="1" as="geometry" />
        </mxCell>
        <mxCell id="eg72zXq6_qFi0K-9-eK--3" value="So sánh với đặc trưng video" style="rounded=0;whiteSpace=wrap;html=1;" vertex="1" parent="1">
          <mxGeometry x="811" y="173" width="120" height="60" as="geometry" />
        </mxCell>
        <mxCell id="eg72zXq6_qFi0K-9-eK--9" style="edgeStyle=none;curved=1;rounded=0;orthogonalLoop=1;jettySize=auto;html=1;fontSize=12;startSize=8;endSize=8;" edge="1" parent="1" source="eg72zXq6_qFi0K-9-eK--4" target="eg72zXq6_qFi0K-9-eK--5">
          <mxGeometry relative="1" as="geometry" />
        </mxCell>
        <mxCell id="eg72zXq6_qFi0K-9-eK--4" value="Chọn 3 video giống nhất" style="rounded=0;whiteSpace=wrap;html=1;" vertex="1" parent="1">
          <mxGeometry x="811" y="277" width="120" height="60" as="geometry" />
        </mxCell>
        <mxCell id="eg72zXq6_qFi0K-9-eK--5" value="Hiển thị" style="rounded=0;whiteSpace=wrap;html=1;" vertex="1" parent="1">
          <mxGeometry x="811" y="373" width="120" height="60" as="geometry" />
        </mxCell>
      </root>
    </mxGraphModel>
  </diagram>
</mxfile>
